<svg width="175" height="20" viewBox="0 0 175 20" fill="none" xmlns="http://www.w3.org/2000/svg">
<path d="M5.96 15C7.6 15 8.86 14.48 9.58 13.74C10.08 13.24 10.56 12.38 10.56 11.12C10.56 10.06 10.2 9.2 9.66 8.68C9.24 8.28 8.54 7.96 7.84 7.88C8.34 7.66 8.64 7.36 8.92 6.84C9.2 6.28 9.3 5.78 9.3 5.2C9.3 4.02 8.94 3.2 8.48 2.7C7.66 1.8 6.52 1.66 5.56 1.66H0.4V15H5.96ZM3.86 4.32H4.5C5.18 4.32 5.6 4.5 5.82 4.72C6.02 4.94 6.14 5.28 6.14 5.62C6.14 5.92 6.04 6.28 5.82 6.5C5.46 6.88 4.86 6.92 4.5 6.92H3.86V4.32ZM3.86 9.5H4.58C5.44 9.5 6.3 9.52 6.72 9.94C6.92 10.14 7.06 10.48 7.06 10.9C7.06 11.28 6.94 11.58 6.78 11.76C6.4 12.2 5.6 12.3 4.64 12.3H3.86V9.5ZM21.9433 10.78C21.9433 9.78 21.7833 8.22 20.5233 7.02C19.4633 6.02 18.1233 5.8 17.0833 5.8C15.3233 5.8 14.1633 6.38 13.4233 7.1C12.6433 7.86 12.0833 9.06 12.0833 10.56C12.0833 12.26 12.8233 13.36 13.4033 13.94C14.5033 15.04 15.9233 15.3 17.1033 15.3C19.0433 15.3 20.0833 14.7 20.7433 14.06C21.4033 13.42 21.6833 12.72 21.8233 12.22H18.7633C18.6233 12.5 18.4033 12.7 18.2033 12.82C17.8033 13.04 17.2433 13.06 17.1633 13.06C16.4433 13.06 16.0433 12.82 15.8433 12.62C15.4633 12.24 15.2833 11.6 15.2833 11.12H21.9433V10.78ZM15.3833 9.28C15.4433 8.88 15.6433 8.56 15.8633 8.32C16.2033 7.98 16.6233 7.84 17.1633 7.84C17.4833 7.84 18.0633 7.9 18.4833 8.32C18.7233 8.56 18.9233 8.94 19.0033 9.28H15.3833ZM23.2314 14.26C24.7714 15.2 26.0314 15.3 26.8314 15.3C27.5714 15.3 29.0914 15.22 30.1314 14.18C30.5714 13.76 31.0314 13.04 31.0314 11.96C31.0314 11.3 30.7914 10.6 30.3514 10.18C30.0914 9.92 29.4514 9.6 29.0314 9.48L28.4514 9.32C27.9514 9.18 27.6914 9.18 27.3914 9.06C27.1914 8.98 27.0114 8.84 27.0114 8.56C27.0114 8.36 27.1114 8.22 27.2914 8.12C27.4914 8 27.7114 7.94 28.0314 7.94C28.6114 7.94 29.2714 8.18 29.7114 8.38L30.7914 6.34C30.2714 6.12 29.2514 5.76 27.9314 5.76C26.6114 5.76 25.4114 6.14 24.7314 6.84C24.2314 7.36 23.8914 8.16 23.8914 9.02C23.8914 9.7 24.1314 10.2 24.4714 10.56C24.9514 11.08 25.5914 11.24 26.0314 11.34L26.8714 11.54C27.1914 11.62 27.5114 11.68 27.7114 11.86C27.8514 11.98 27.8714 12.12 27.8714 12.26C27.8714 12.42 27.8514 12.54 27.7114 12.68C27.5114 12.86 27.1314 12.92 26.8914 12.92C26.5514 12.92 26.0514 12.84 25.6514 12.7C25.2114 12.56 24.7514 12.32 24.3714 12.04L23.2314 14.26ZM38.0381 8.68V6.06H36.2181V3.12H33.0181V6.06H31.9981V8.68H33.0181V15H36.2181V8.68H38.0381ZM49.1206 10.54C47.9006 11.88 46.6206 11.94 46.1006 11.94C45.1206 11.94 44.2006 11.56 43.6206 11.02C42.9206 10.36 42.5406 9.34 42.5406 8.42C42.5406 7.48 42.8806 6.44 43.7006 5.68C44.3406 5.1 45.1006 4.8 46.1006 4.8C46.6806 4.8 48.0006 4.88 49.1206 6.26V2.12C47.6806 1.54 46.6406 1.44 46.0006 1.44C43.9206 1.44 42.1406 2.32 40.9606 3.52C39.7606 4.74 38.9406 6.54 38.9406 8.44C38.9406 10.18 39.6606 12 40.9606 13.3C42.0606 14.38 43.8006 15.3 46.1206 15.3C46.9806 15.3 47.7406 15.14 49.1206 14.64V10.54ZM51.018 6.06V11.64C51.018 12.5 51.178 13.3 51.858 14.02C52.918 15.16 54.558 15.3 55.898 15.3C57.118 15.3 58.658 15.18 59.758 14.04C60.558 13.22 60.618 12.4 60.618 11.64V6.06H57.418V11.06C57.418 11.46 57.358 11.92 56.958 12.32C56.598 12.66 56.218 12.7 55.818 12.7C55.438 12.7 55.018 12.64 54.698 12.36C54.278 11.98 54.218 11.42 54.218 11.06V6.06H51.018ZM62.2548 14.26C63.7948 15.2 65.0548 15.3 65.8548 15.3C66.5948 15.3 68.1148 15.22 69.1548 14.18C69.5948 13.76 70.0548 13.04 70.0548 11.96C70.0548 11.3 69.8148 10.6 69.3748 10.18C69.1148 9.92 68.4748 9.6 68.0548 9.48L67.4748 9.32C66.9748 9.18 66.7148 9.18 66.4148 9.06C66.2148 8.98 66.0348 8.84 66.0348 8.56C66.0348 8.36 66.1348 8.22 66.3148 8.12C66.5148 8 66.7348 7.94 67.0548 7.94C67.6348 7.94 68.2948 8.18 68.7348 8.38L69.8148 6.34C69.2948 6.12 68.2748 5.76 66.9548 5.76C65.6348 5.76 64.4348 6.14 63.7548 6.84C63.2548 7.36 62.9148 8.16 62.9148 9.02C62.9148 9.7 63.1548 10.2 63.4948 10.56C63.9748 11.08 64.6148 11.24 65.0548 11.34L65.8948 11.54C66.2148 11.62 66.5348 11.68 66.7348 11.86C66.8748 11.98 66.8948 12.12 66.8948 12.26C66.8948 12.42 66.8748 12.54 66.7348 12.68C66.5348 12.86 66.1548 12.92 65.9148 12.92C65.5748 12.92 65.0748 12.84 64.6748 12.7C64.2348 12.56 63.7748 12.32 63.3948 12.04L62.2548 14.26ZM77.0616 8.68V6.06H75.2416V3.12H72.0416V6.06H71.0216V8.68H72.0416V15H75.2416V8.68H77.0616ZM83.2841 8.48C83.7841 8.48 84.3441 8.72 84.7041 9.06C85.1041 9.46 85.3241 10.04 85.3241 10.52C85.3241 11.04 85.1041 11.56 84.7041 11.94C84.3241 12.32 83.8041 12.54 83.2841 12.54C82.7441 12.54 82.2241 12.32 81.8441 11.94C81.4841 11.58 81.2241 11.06 81.2241 10.52C81.2241 10 81.4441 9.44 81.8441 9.06C82.2041 8.72 82.7641 8.48 83.2841 8.48ZM88.6441 10.52C88.6441 8.92 87.9241 7.88 87.2641 7.24C86.5241 6.54 85.2441 5.76 83.2641 5.76C81.3241 5.76 80.0241 6.52 79.2841 7.24C78.6241 7.88 77.9041 8.92 77.9041 10.52C77.9041 11.72 78.3041 12.86 79.2841 13.82C80.5241 15.04 81.9641 15.3 83.2641 15.3C84.7041 15.3 86.0841 14.98 87.2641 13.82C88.2441 12.86 88.6441 11.72 88.6441 10.52ZM90.4906 15H93.6906V10.58C93.6906 10.02 93.6906 9.16 94.2506 8.62C94.5106 8.36 94.7906 8.3 95.1306 8.3C95.4506 8.3 95.8106 8.36 96.0906 8.66C96.4506 9.04 96.5106 9.72 96.5106 10.58V15H99.7106V10.42C99.7106 9.98 99.7506 9.24 100.291 8.72C100.571 8.46 100.871 8.36 101.231 8.36C101.651 8.36 101.891 8.5 102.071 8.66C102.431 9 102.531 9.64 102.531 10.58V15H105.731V9.18C105.731 8.56 105.691 7.5 104.891 6.72C104.151 6 103.071 5.9 102.411 5.9C101.811 5.9 101.191 5.98 100.551 6.34C100.151 6.56 99.6906 6.94 99.3306 7.58C99.1106 7.14 98.7506 6.64 98.0906 6.3C97.6106 6.04 97.0106 5.9 96.3706 5.9C95.4906 5.9 94.4506 6.22 93.6906 7.14V6.06H90.4906V15ZM106.852 1.66L110.832 15H114.352L116.912 7.28L119.332 15H122.872L127.132 1.66H123.512L120.992 10.28L118.372 1.66H115.612L112.792 10.28L110.472 1.66H106.852ZM127.483 15H130.683V11.18C130.683 10.7 130.723 9.76 131.403 9.14C131.863 8.72 132.443 8.66 132.863 8.66C133.643 8.66 134.083 8.9 134.243 8.98V5.96C133.823 5.94 133.683 5.92 133.603 5.92C133.003 5.92 132.423 6.02 131.943 6.28C131.463 6.52 131.003 6.92 130.683 7.52V6.06H127.483V15ZM135.666 6.06V15H138.866V6.06H135.666ZM135.466 2.34C135.466 3.34 136.266 4.14 137.266 4.14C138.266 4.14 139.066 3.34 139.066 2.34C139.066 1.34 138.266 0.539999 137.266 0.539999C136.266 0.539999 135.466 1.34 135.466 2.34ZM146.398 8.68V6.06H144.578V3.12H141.378V6.06H140.358V8.68H141.378V15H144.578V8.68H146.398ZM147.6 6.06V15H150.8V6.06H147.6ZM147.4 2.34C147.4 3.34 148.2 4.14 149.2 4.14C150.2 4.14 151 3.34 151 2.34C151 1.34 150.2 0.539999 149.2 0.539999C148.2 0.539999 147.4 1.34 147.4 2.34ZM152.971 15H156.171V10.2C156.171 9.66 156.371 9.08 156.691 8.78C156.951 8.54 157.371 8.36 157.871 8.36C158.191 8.36 158.591 8.42 158.891 8.74C159.311 9.18 159.291 9.96 159.291 10.48V15H162.491V9.32C162.491 8.34 162.411 7.58 161.651 6.82C160.911 6.08 159.931 5.86 159.011 5.86C158.231 5.86 157.051 6.02 156.171 7.18V6.06H152.971V15ZM171.53 6.06V6.98C170.59 5.92 169.43 5.8 168.87 5.8C167.69 5.8 166.49 6.26 165.63 7.16C164.85 7.98 164.31 9.26 164.31 10.66C164.31 11.88 164.75 13.1 165.55 13.92C166.15 14.54 167.21 15.18 168.85 15.18C169.57 15.18 170.53 15.06 171.53 14V14.9C171.53 15.42 171.43 16.06 170.89 16.56C170.47 16.96 169.97 17.06 169.47 17.06C168.41 17.06 168.09 16.5 167.97 16.14H164.41C164.53 16.92 164.87 17.46 165.39 18C166.53 19.16 167.91 19.58 169.57 19.58C170.87 19.58 172.37 19.3 173.51 18.14C174.61 17 174.73 15.78 174.73 14.44V6.06H171.53ZM169.63 8.46C170.17 8.46 170.69 8.68 171.05 9.04C171.43 9.42 171.69 10.04 171.69 10.5C171.69 10.96 171.49 11.54 171.09 11.94C170.71 12.32 170.15 12.54 169.65 12.54C169.17 12.54 168.63 12.38 168.21 11.96C167.81 11.56 167.59 11.02 167.59 10.5C167.59 10.08 167.75 9.54 168.21 9.06C168.63 8.64 169.09 8.46 169.63 8.46Z" fill="black"/>
</svg>
